HIERARCHY
ROOT Hips
{
	OFFSET 0.000000 0.000000 0.000000
	CHANNELS 6 Xposition Yposition Zposition Zrotation Yrotation Xrotation 
	JOINT LHipJoint
	{
		OFFSET 0.000000 0.000000 0.000000
		CHANNELS 3 Zrotation Yrotation Xrotation
		JOINT LeftUpLeg
		{
			OFFSET 1.363060 -1.794630 0.839290
			CHANNELS 3 Zrotation Yrotation Xrotation
			JOINT LeftLeg
			{
				OFFSET 2.448110 -6.726130 0.000000
				CHANNELS 3 Zrotation Yrotation Xrotation
				JOINT LeftFoot
				{
					OFFSET 2.562200 -7.039590 0.000000
					CHANNELS 3 Zrotation Yrotation Xrotation
					JOINT LeftToeBase
					{
						OFFSET 0.157640 -0.433110 2.322550
						CHANNELS 3 Zrotation Yrotation Xrotation
						End Site
						{
							OFFSET 0.000000 0.000000 0.000000
						}
					}
				}
			}
		}
	}
	JOINT RHipJoint
	{
		OFFSET 0.000000 0.000000 0.000000
		CHANNELS 3 Zrotation Yrotation Xrotation
		JOINT RightUpLeg
		{
			OFFSET -1.305520 -1.794630 0.839290
			CHANNELS 3 Zrotation Yrotation Xrotation
			JOINT RightLeg
			{
				OFFSET -2.542530 -6.985550 0.000000
				CHANNELS 3 Zrotation Yrotation Xrotation
				JOINT RightFoot
				{
					OFFSET -2.568260 -7.056230 0.000000
					CHANNELS 3 Zrotation Yrotation Xrotation
					JOINT RightToeBase
					{
						OFFSET -0.164730 -0.452590 2.363150
						CHANNELS 3 Zrotation Yrotation Xrotation
						End Site
						{
							OFFSET 0.000000 0.000000 0.000000
						}
					}
				}
			}
		}
	}
	JOINT LowerBack
	{
		OFFSET 0.000000 0.000000 0.000000
		CHANNELS 3 Zrotation Yrotation Xrotation
		JOINT Spine
		{
			OFFSET 0.028270 2.035590 -0.193380
			CHANNELS 3 Zrotation Yrotation Xrotation
			JOINT Spine1
			{
				OFFSET 0.056720 2.048850 -0.042750
				CHANNELS 3 Zrotation Yrotation Xrotation
				JOINT Neck
				{
					OFFSET 0.000000 0.000000 0.000000
					CHANNELS 3 Zrotation Yrotation Xrotation
					JOINT Neck1
					{
						OFFSET -0.054170 1.746240 0.172020
						CHANNELS 3 Zrotation Yrotation Xrotation
						JOINT Head
						{
							OFFSET 0.104070 1.761360 -0.123970
							CHANNELS 3 Zrotation Yrotation Xrotation
							End Site
							{
								OFFSET 0.000000 0.000000 0.000000
							}
						}
					}
				}
				JOINT LeftShoulder
				{
					OFFSET 0.000000 0.000000 0.000000
					CHANNELS 3 Zrotation Yrotation Xrotation
					JOINT LeftArm
					{
						OFFSET 3.362410 1.200890 -0.311210
						CHANNELS 3 Zrotation Yrotation Xrotation
						JOINT LeftForeArm
						{
							OFFSET 4.983000 -0.000000 -0.000000
							CHANNELS 3 Zrotation Yrotation Xrotation
							JOINT LeftHand
							{
								OFFSET 3.483560 -0.000000 -0.000000
								CHANNELS 3 Zrotation Yrotation Xrotation
								JOINT LeftFingerBase
								{
									OFFSET 0.000000 0.000000 0.000000
									CHANNELS 3 Zrotation Yrotation Xrotation
									JOINT LeftHandIndex1
									{
										OFFSET 0.715260 -0.000000 -0.000000
										CHANNELS 3 Zrotation Yrotation Xrotation
										End Site
										{
											OFFSET 0.000000 0.000000 0.000000
										}
									}
								}
								JOINT LThumb
								{
									OFFSET 0.000000 0.000000 0.000000
									CHANNELS 3 Zrotation Yrotation Xrotation
									End Site
									{
										OFFSET 0.000000 0.000000 0.000000
									}
								}
							}
						}
					}
				}
				JOINT RightShoulder
				{
					OFFSET 0.000000 0.000000 0.000000
					CHANNELS 3 Zrotation Yrotation Xrotation
					JOINT RightArm
					{
						OFFSET -3.136600 1.374050 -0.404650
						CHANNELS 3 Zrotation Yrotation Xrotation
						JOINT RightForeArm
						{
							OFFSET -5.241900 -0.000000 -0.000000
							CHANNELS 3 Zrotation Yrotation Xrotation
							JOINT RightHand
							{
								OFFSET -3.444170 -0.000000 -0.000000
								CHANNELS 3 Zrotation Yrotation Xrotation
								JOINT RightFingerBase
								{
									OFFSET 0.000000 0.000000 0.000000
									CHANNELS 3 Zrotation Yrotation Xrotation
									JOINT RightHandIndex1
									{
										OFFSET -0.622530 -0.000000 -0.000000
										CHANNELS 3 Zrotation Yrotation Xrotation
										End Site
										{
											OFFSET 0.000000 0.000000 0.000000
										}
									}
								}
								JOINT RThumb
								{
									OFFSET 0.000000 0.000000 0.000000
									CHANNELS 3 Zrotation Yrotation Xrotation
									End Site
									{
										OFFSET 0.000000 0.000000 0.000000
									}
								}
							}
						}
					}
				}
			}
		}
	}
}
MOTION
Frames: 10
Frame Time: 0.008333
31.205615 19.424033 -8.416503 3.428740 14.668056 8.675719 -17.286428 1.662836 1.756020 -0.089211 -3.813685 -30.694354 -16.998259 -11.110231 50.683142 -5.110879 42.755715 -4.295586 -0.609252 0.134678 -4.102365 16.163853 -3.532402 3.845052 0.349945 3.675649 -23.104150 -6.973749 -24.267463 10.400535 1.356650 -1.157090 11.776615 -0.263657 -0.902954 -1.041123 4.297537 0.426800 6.314438 0.770429 0.367835 -4.140879 -1.925032 0.281129 -2.311521 -2.351824 -0.346691 -4.395946 6.351149 -8.064871 25.132588 -2.508885 -5.722420 2.790534 -6.942428 -6.747253 1.391363 -73.849446 -8.958501 42.043256 9.935309 -21.570865 -6.715343 3.831050 -3.389837 -2.105770 -1.082706 -0.227612 0.000000 0.000000 0.000000 0.000000 0.000000 0.000000 0.000000 7.383652 7.313771 0.653605 63.922914 15.607757 30.510611 -11.014819 23.177659 -3.879668 -4.159117 2.741326 0.739535 1.072993 0.236967 0.000000 0.000000 0.000000 0.000000 0.000000 0.000000 0.000000
31.216570 19.436861 -8.332590 3.478901 14.404809 8.723538 -17.262856 1.613062 1.871714 -0.063852 -4.124071 -30.941924 -18.405693 -12.710840 51.128584 -5.100157 44.461020 -5.155936 -0.695965 -0.478526 -4.326223 16.201029 -3.633780 3.936897 0.404752 3.514583 -23.147141 -7.250103 -24.740667 10.410248 0.916891 0.057451 11.841391 -0.248147 -0.847481 -0.937781 4.201597 0.471663 6.283813 0.764308 0.420371 -4.144385 -1.957859 0.331792 -2.354183 -2.370074 -0.394065 -4.360033 6.159625 -8.124346 25.019474 -2.488847 -5.834558 3.319593 -6.656346 -6.691866 1.370761 -74.051372 -8.831865 42.419979 10.598917 -22.515493 -7.407314 3.859427 -3.521520 -2.270703 -1.087878 -0.227206 0.000000 0.000000 0.000000 0.000000 0.000000 0.000000 0.000000 7.081908 7.352796 0.579688 64.241709 15.526297 30.691398 -11.672990 23.918465 -4.665208 -4.555684 2.933775 0.352522 1.212732 0.194843 0.000000 0.000000 0.000000 0.000000 0.000000 0.000000 0.000000
31.221951 19.441833 -8.260669 3.464108 14.120380 8.880900 -17.220946 1.492807 1.845056 -0.058230 -4.168208 -31.134416 -18.043492 -13.095918 50.172123 -5.236711 43.901954 -5.125234 -0.817653 -0.128405 -5.340874 16.211146 -3.593896 3.931627 0.408309 3.507228 -23.108331 -6.924386 -22.594768 11.263126 3.225486 -2.445823 10.689662 -0.058453 -0.184033 -2.006250 4.103989 0.484312 6.294481 0.762498 0.438822 -4.146656 -1.891787 0.348677 -2.434329 -2.409175 -0.407159 -4.283235 6.057768 -8.042667 24.985495 -2.649475 -5.760740 2.869536 -6.363854 -6.691199 1.161965 -74.173888 -8.578583 41.882526 10.770681 -23.795306 -7.571467 3.906843 -3.657858 -2.054364 -1.115866 -0.236603 0.000000 0.000000 0.000000 0.000000 0.000000 0.000000 0.000000 6.895000 7.380530 0.610534 64.404869 15.683455 30.829665 -12.293747 24.803124 -5.813421 -4.427577 2.651063 -0.225395 1.168095 0.322962 0.000000 0.000000 0.000000 0.000000 0.000000 0.000000 0.000000
31.229909 19.446753 -8.197527 3.451284 13.946105 9.011973 -17.256383 1.433119 1.748704 -0.074309 -4.120305 -31.064561 -15.406688 -11.936801 47.204920 -5.734378 41.346268 -3.620613 -1.015311 -1.774727 -5.860381 16.221060 -3.545512 3.889652 0.595956 3.125530 -23.297135 -7.255950 -23.033757 11.487887 2.661896 -1.171149 10.644126 -0.045303 -0.136777 -2.016295 4.060291 0.516245 6.404742 0.758654 0.478818 -4.147413 -1.888910 0.387146 -2.513334 -2.384787 -0.376886 -4.220069 6.131232 -7.966355 24.915769 -3.199862 -5.601961 2.035537 -5.962622 -6.608489 1.145433 -74.444359 -8.684737 42.013121 11.205579 -24.889939 -7.919550 3.961395 -3.649309 -1.906804 -1.130129 -0.289804 0.000000 0.000000 0.000000 0.000000 0.000000 0.000000 0.000000 6.470546 7.304565 0.455595 64.864721 15.650242 31.340870 -13.252655 25.512638 -6.771168 -4.776885 3.005473 -0.611469 1.287566 0.218776 0.000000 0.000000 0.000000 0.000000 0.000000 0.000000 0.000000
31.237638 19.448225 -8.121247 3.443609 13.657691 9.054124 -17.292036 1.457515 1.724563 -0.128366 -4.053660 -31.071385 -13.977719 -11.532917 45.545699 -5.740976 39.242362 -2.803653 -0.927878 -1.467968 -5.388881 16.266142 -3.601810 3.893975 0.748880 2.896549 -23.347557 -7.288441 -21.932617 12.116083 3.026135 -1.729806 9.871456 -0.018539 -0.043299 -1.788720 3.913707 0.526386 6.487072 0.755273 0.503580 -4.150835 -1.838428 0.409650 -2.579636 -2.451570 -0.420745 -4.160892 5.948957 -7.834495 24.682678 -2.850766 -5.584266 2.238371 -5.634165 -6.529850 1.008135 -74.686218 -8.544288 42.091294 11.788783 -25.903110 -8.513822 4.163154 -3.762369 -1.980459 -1.201731 -0.294994 0.000000 0.000000 0.000000 0.000000 0.000000 0.000000 0.000000 6.257881 7.290603 0.449526 65.041762 15.704485 31.290167 -13.700362 26.507756 -7.445728 -4.850873 2.815930 -0.784901 1.317058 0.316552 0.000000 0.000000 0.000000 0.000000 0.000000 0.000000 0.000000
31.248149 19.450286 -8.051646 3.442039 13.355934 9.225096 -17.263352 1.309753 1.763193 0.183696 -4.442887 -31.045883 -14.106762 -11.933736 44.547921 -6.014718 39.308099 -2.839849 -0.945784 -1.931854 -5.255492 16.233849 -3.550514 3.868891 0.820519 2.787214 -23.492673 -7.280316 -20.983369 12.806286 3.765993 -2.145938 9.197390 -0.080339 -0.263717 -1.699339 3.842521 0.576524 6.470951 0.749306 0.560094 -4.152411 -1.842284 0.465349 -2.617714 -2.464213 -0.457173 -4.125434 5.894691 -7.707306 24.587010 -2.873423 -5.470445 2.118449 -5.374496 -6.475540 1.010981 -74.834904 -8.537254 42.272419 12.313840 -26.993930 -8.983949 4.172812 -3.652233 -1.844366 -1.197504 -0.380009 -0.000000 0.000000 0.000000 0.000000 0.000000 0.000000 0.000000 6.005362 7.320793 0.362568 65.222684 15.685292 30.685539 -13.696777 27.367675 -7.112086 -5.521978 3.369495 -0.423991 1.565754 0.153269 0.000000 0.000000 0.000000 0.000000 0.000000 0.000000 0.000000
31.259972 19.450939 -7.985580 3.392690 13.010742 9.461156 -17.211797 1.158968 1.756873 0.191628 -4.558726 -31.255406 -14.209922 -12.744344 44.059392 -5.756914 39.617541 -2.678387 -0.981967 -2.010357 -5.480826 16.209902 -3.478061 3.773487 0.786455 2.825853 -23.666954 -6.106140 -16.745981 14.693030 5.565155 -6.512195 6.362913 -0.082296 -0.270851 -1.647353 3.814313 0.597342 6.470089 0.746891 0.579636 -4.155846 -1.844029 0.481800 -2.687614 -2.508371 -0.509722 -4.068461 5.748731 -7.506211 24.528035 -2.670682 -5.344530 1.265300 -5.015169 -6.330963 0.889961 -75.157572 -8.506374 42.251896 12.866688 -28.026871 -9.604097 4.308540 -3.829717 -1.916778 -1.253063 -0.355324 0.000000 0.000000 0.000000 0.000000 0.000000 0.000000 0.000000 5.688113 7.248667 0.336396 65.696591 15.815883 31.423968 -14.735799 28.114602 -8.539780 -5.040528 2.868717 -0.921002 1.385113 0.343162 0.000000 0.000000 0.000000 0.000000 0.000000 0.000000 0.000000
31.267711 19.453405 -7.907461 3.347623 12.650873 9.602026 -17.198000 1.134706 1.806881 0.187155 -4.576306 -31.417783 -13.852019 -13.224024 43.305421 -5.786748 39.073350 -2.408465 -0.963895 -1.676844 -5.535158 16.230498 -3.489445 3.757698 1.040884 2.681339 -24.051535 -6.407922 -16.473056 15.529194 4.564173 -5.725873 5.691380 -0.266968 -0.909600 -0.763689 3.667546 0.650746 6.457924 0.740589 0.643616 -4.157894 -1.783492 0.549658 -2.785276 -2.508636 -0.470386 -3.983705 5.816551 -7.450696 24.501352 -3.099517 -5.216200 0.379953 -4.673691 -6.283619 0.822759 -75.431644 -8.381682 42.249776 13.269358 -28.977048 -9.883997 4.385880 -3.823140 -1.702706 -1.276186 -0.393755 0.000000 0.000000 0.000000 0.000000 0.000000 0.000000 0.000000 5.406100 7.228883 0.229340 66.024254 15.672816 31.496574 -15.096079 28.795609 -8.511879 -5.532189 3.399134 -0.676478 1.560011 0.178011 0.000000 0.000000 0.000000 0.000000 0.000000 0.000000 0.000000
31.279872 19.455557 -7.836768 3.291297 12.296248 9.679012 -17.214144 1.128778 1.832292 -0.028654 -4.262947 -31.648047 -13.837650 -14.361937 43.142778 -5.878974 38.942276 -2.354032 -0.922030 -1.627008 -5.256310 16.223692 -3.525041 3.712703 1.380914 2.231949 -24.497529 -6.045583 -13.482024 17.361359 6.321635 -7.974918 3.516382 -0.080356 -0.265356 -1.277011 3.608423 0.689692 6.493796 0.735483 0.690050 -4.160422 -1.788606 0.594489 -2.805084 -2.531165 -0.494529 -3.962591 5.765944 -7.324070 24.299634 -3.013116 -5.124401 0.395136 -4.343881 -6.251760 0.803596 -75.738659 -8.315820 42.588248 14.063743 -29.860736 -10.851957 4.370105 -3.856139 -1.939634 -1.272620 -0.406920 0.000000 0.000000 0.000000 0.000000 0.000000 0.000000 0.000000 5.092197 7.264387 0.204761 66.301261 15.644613 31.052260 -15.107817 29.765491 -8.455533 -5.905765 3.506623 -0.434399 1.700038 0.169839 -0.000000 0.000000 0.000000 0.000000 0.000000 0.000000 0.000000
31.292135 19.454509 -7.767286 3.216122 11.928796 9.813408 -17.211303 1.128675 1.813465 -0.310486 -3.867304 -31.955854 -12.868210 -14.536685 42.359165 -6.122933 37.422724 -1.919874 -0.913980 -1.425787 -5.311906 16.180708 -3.486246 3.696916 1.173557 2.757568 -24.650465 -4.565287 -10.151361 19.329005 7.063783 -11.326226 0.578684 -0.263099 -0.891954 -0.505873 3.547947 0.725327 6.508972 0.731172 0.727266 -4.162872 -1.777825 0.634706 -2.925285 -2.534731 -0.493072 -3.837378 5.768118 -7.221940 24.181432 -3.193033 -5.009454 -0.176648 -4.011925 -6.342838 0.679928 -76.028638 -8.030127 42.403022 14.465567 -30.802746 -11.210923 4.434826 -3.797519 -1.781593 -1.291941 -0.456580 0.000000 0.000000 0.000000 0.000000 0.000000 0.000000 0.000000 4.775005 7.397716 0.110108 66.699364 15.418983 31.188937 -15.525067 30.511487 -8.751324 -5.689168 3.412649 -0.234674 1.617653 0.216159 -0.000000 0.000000 0.000000 0.000000 0.000000 0.000000 0.000000
